<?xml version="1.0" encoding="UTF-8"?>
<svg id="logo" xmlns="http://www.w3.org/2000/svg" version="1.1" xmlns:xlink="http://www.w3.org/1999/xlink" viewBox="0 0 500 500">
  <!-- Generator: Adobe Illustrator 29.3.1, SVG Export Plug-In . SVG Version: 2.1.0 Build 151)  -->
  <defs>
    <style>
      .st0 {
        fill: url(#_Безымянный_градиент_16);
      }

      .st0, .st1, .st2, .st3, .st4, .st5, .st6, .st7, .st8, .st9, .st10, .st11, .st12, .st13, .st14, .st15 {
        fill-rule: evenodd;
      }

      .st1 {
        fill: #f36e25;
      }

      .st2 {
        fill: url(#_Безымянный_градиент_451);
      }

      .st3 {
        fill: #ed7805;
      }

      .st4 {
        fill: url(#_Безымянный_градиент_38);
      }

      .st5 {
        fill: #c6601a;
      }

      .st6 {
        fill: url(#_Безымянный_градиент_46);
      }

      .st7 {
        fill: #f99805;
      }

      .st8 {
        fill: url(#_Безымянный_градиент_39);
      }

      .st9 {
        fill: #d6520b;
      }

      .st10 {
        fill: url(#_Безымянный_градиент_27);
      }

      .st11 {
        fill: #d34d0a;
      }

      .st12 {
        fill: #bb3a0b;
      }

      .st13 {
        fill: url(#_Безымянный_градиент_45);
      }

      .st14 {
        fill: url(#_Безымянный_градиент_9);
      }

      .st15 {
        fill: url(#_Безымянный_градиент_161);
      }
    </style>
    <linearGradient id="_Безымянный_градиент_46" data-name="Безымянный градиент 46" x1="223.68" y1="381.5" x2="428.59" y2="140.78" gradientUnits="userSpaceOnUse">
      <stop offset=".24" stop-color="#e26e05"/>
      <stop offset=".84" stop-color="#ffb705"/>
    </linearGradient>
    <linearGradient id="_Безымянный_градиент_16" data-name="Безымянный градиент 16" x1="162.77" y1="332.35" x2="297.24" y2="332.35" gradientUnits="userSpaceOnUse">
      <stop offset="0" stop-color="#d66112"/>
      <stop offset=".79" stop-color="#f6a507"/>
      <stop offset=".99" stop-color="#ffb705"/>
    </linearGradient>
    <linearGradient id="_Безымянный_градиент_45" data-name="Безымянный градиент 45" x1="169.76" y1="267.72" x2="246.29" y2="267.72" gradientUnits="userSpaceOnUse">
      <stop offset=".02" stop-color="#c15f1e"/>
      <stop offset=".68" stop-color="#dd7026"/>
    </linearGradient>
    <linearGradient id="_Безымянный_градиент_9" data-name="Безымянный градиент 9" x1="90.29" y1="167.35" x2="345.56" y2="167.35" gradientUnits="userSpaceOnUse">
      <stop offset="0" stop-color="#e26e05"/>
      <stop offset=".84" stop-color="#ffb705"/>
    </linearGradient>
    <linearGradient id="_Безымянный_градиент_161" data-name="Безымянный градиент 16" x1="131.66" y1="168.33" x2="338.88" y2="168.33" xlink:href="#_Безымянный_градиент_16"/>
    <linearGradient id="_Безымянный_градиент_38" data-name="Безымянный градиент 38" x1="224.36" y1="223.64" x2="104.66" y2="429.19" gradientUnits="userSpaceOnUse">
      <stop offset=".61" stop-color="#d7500b"/>
      <stop offset="1" stop-color="#dd7026"/>
    </linearGradient>
    <linearGradient id="_Безымянный_градиент_39" data-name="Безымянный градиент 39" x1="171.51" y1="329.01" x2="100.24" y2="451.4" gradientUnits="userSpaceOnUse">
      <stop offset=".61" stop-color="#e96d10"/>
      <stop offset="1" stop-color="#f2840d"/>
    </linearGradient>
    <linearGradient id="_Безымянный_градиент_27" data-name="Безымянный градиент 27" x1="196.72" y1="89.28" x2="282.44" y2="89.28" gradientUnits="userSpaceOnUse">
      <stop offset="0" stop-color="#d66112"/>
      <stop offset=".68" stop-color="#f6a507"/>
      <stop offset=".84" stop-color="#ffb705"/>
    </linearGradient>
    <linearGradient id="_Безымянный_градиент_451" data-name="Безымянный градиент 45" x1="214.89" y1="115.15" x2="197.8" y2="141.13" xlink:href="#_Безымянный_градиент_45"/>
  </defs>
  <g id="U">
    <path id="_Фигура_2" data-name="Фигура_2" class="st6" d="M365.34,131.8h66.33l-37.85,218.11s-20.72,100.68-122.01,99.93c0,0-114.2-3.4-108.85-120.75l10.2-68.03s3.31-50.34,73.13-45.92l-18.71,105.44s-12.49,54.92,39.12,64.63c0,0,51.42,9.45,64.11-53.98l34.53-199.43Z"/>
    <path id="_Фигура_2_copy_3" data-name="Фигура_2_copy_3" class="st11" d="M298.87,447.42c-8.31,1.63-17.32,2.49-27.07,2.42,0,0-48.4-32.31-51.45-64.88-3.42-36.48,7.23-64.38,7.23-64.38,0,0-12.49,54.92,39.12,64.63,0,0,2.61.48,6.81.5,0,0-9.35,7.42-3.59,29.5,8.67,33.18,28.95,32.21,28.95,32.21Z"/>
    <path id="_Фигура_2_copy_2" data-name="Фигура_2_copy_2" class="st0" d="M297.24,447.72s-16.32,2.18-25.44,2.12c0,0-114.2-3.4-108.85-120.75l10.2-68.03s3.31-50.34,73.13-45.92l-18.71,105.44c-17.14,65.02,25.98,129.97,69.65,127.14Z"/>
    <path id="_Фигура_2_copy_4" data-name="Фигура_2_copy_4" class="st13" d="M169.76,284.87l3.4-23.81s3.31-50.34,73.13-45.92l-18.71,105.44s2.74-58.51-18.69-64.85c-26.59-7.87-39.14,29.14-39.14,29.14Z"/>
    <path id="_Фигура_2_copy" data-name="Фигура_2_copy" class="st7" d="M365.34,131.8h66.33s-25.31.4-48.91,36.79c-25.21,38.88-35.68,68.65-35.68,68.65l18.26-105.44Z"/>
    <path id="_Фигура_2_copy_5" data-name="Фигура_2_copy_5" class="st5" d="M169.76,284.87l3.4-23.81s3.31-50.34,73.13-45.92c0,0-20.39,2.51-46.73,24.74-21.07,17.78-29.8,44.99-29.8,44.99Z"/>
  </g>
  <g id="C">
    <path id="_Фигура_3_copy" data-name="Фигура_3_copy" class="st1" d="M191.61,449.77h-90.14s-39.29-5.12-32.31-45.92c6.98-40.8,44.22-239.8,44.22-239.8,0,0,2.19-33.52,47.62-32.31h35.72s-.94-86.01,76.53-85.04c0,0,75.73-.88,72.2,76.38,0,0-2.98,62.33-55.19,66.48-52.21,4.15-81.63,6.8-81.63,6.8,0,0-55.76,4.41-64.63,54.42-8.86,50.02-11.91,66.33-11.91,66.33,0,0-18.09,87.31,59.53,132.66ZM223.93,131.73h91.84s14.44-54.68-40.82-57.82c0,0-49.12-2.34-51.02,57.82Z"/>
    <path id="_Фигура_3_copy_5" data-name="Фигура_3_copy_5" class="st14" d="M113.38,164.05s2.19-33.52,47.62-32.31h35.72s-.94-86.01,76.53-85.04c0,0,75.73-.88,72.2,76.38,0,0-2.98,62.33-55.19,66.48-52.21,4.15-81.63,6.8-81.63,6.8,0,0-13.91,1.1-28.95,8.43,0,0-23.36,7.6-44.13,23.23,0,0-41.09,37.54-45.25,60,11.47-61.91,23.09-123.97,23.09-123.97ZM223.93,131.73h91.84s14.44-54.68-40.82-57.82c0,0-49.12-2.34-51.02,57.82Z"/>
    <path id="_Фигура_3_copy_4" data-name="Фигура_3_copy_4" class="st15" d="M273.25,46.7s75.73-.88,72.2,76.38c0,0-2.98,62.33-55.19,66.48-52.21,4.15-81.63,6.8-81.63,6.8,0,0-50.97,6.55-85.3,43.99-28.56,31.15-33.39,49.62-33.39,49.62,1.48-8.01,2.97-16.03,4.44-23.93,9.99-53.81,68.68-83.77,68.68-83.77,11.46-6.59,26.68-9.06,43.87-11.41,17.78-2.43,71.4-15.67,85.04-39.12h23.81c.34-2.5,3.12-12.81.8-25.41-1.62-8.74-5.27-17.22-14.4-23.92,0,0-4.86-32.25-28.91-35.72ZM291.96,131.73"/>
    <path id="_Фигура_3_copy_2" data-name="Фигура_3_copy_2" class="st4" d="M191.61,449.77h-90.14s-39.29-5.12-32.31-45.92c3.08-18.02,12.06-66.88,21.13-115.83,4.16-22.46,45.25-60,45.25-60,20.77-15.63,44.13-23.23,44.13-23.23-15.06,7.35-31.24,20.96-35.68,45.99-8.86,50.02-11.91,66.33-11.91,66.33,0,0-18.09,87.31,59.53,132.66Z"/>
    <path id="_Фигура_3" data-name="Фигура_3" class="st8" d="M191.61,449.77h-90.14s-39.29-5.12-32.31-45.92c2.1-12.26,6.92-38.78,12.65-69.91,5.59-30.39,29.75-34.24,34.41-34.11,12.85.35,15.87,17.28,15.87,17.28,0,0-18.09,87.31,59.53,132.66Z"/>
    <path class="st12" d="M132.08,317.12s3.04-16.31,11.91-66.33c3.91-22.05,16.93-35.24,30.28-43.09,0,0-46.99,19.94-58.65,92.14.22,0,.42,0,.59,0,12.85.35,15.87,17.28,15.87,17.28Z"/>
    <path class="st9" d="M132.09,317.11s-3.03-16.93-15.87-17.28c-.17,0-.37,0-.59,0-2.05,12.73-3.02,27.07-2.42,43.22,2.83,76.86,78.41,106.71,78.41,106.71-77.61-45.35-59.53-132.66-59.53-132.66Z"/>
    <path id="_Фигура_3_copy_6" data-name="Фигура_3_copy_6" class="st10" d="M196.72,131.73s-.55-50.35,33.89-73.57c16.84-11.35,37.78-11.41,37.78-11.41,2.03-.09,17.79,28.59,13.24,27.81-3.42-.59-5.95-.67-6.65-.69-1.49-.04-8.38-.14-16.86,2.81-4.38,1.52-8.19,3.56-11.71,5.88-7.75,5.62-21.32,17.1-22.49,49.25l-27.21-.07Z"/>
    <path id="_Фигура_3_copy_10" data-name="Фигура_3_copy_10" class="st2" d="M196.72,131.73s-.11-10.39,2.99-23.9c1.21,3.68,20.46,10.71,28.11.26-2.09,6.32-3.55,14.09-3.89,23.72l-27.21-.07Z"/>
    <path id="_Фигура_3_copy_9" data-name="Фигура_3_copy_9" class="st3" d="M263.08,47.1c1.17-.13,2.39-.24,3.66-.32,2.34-.14,4.53-.15,6.57-.08,3.59.48,8.23,1.66,12.82,4.57,15.01,9.49,15.95,28.75,16.03,31.15-4.72-3.1-14.36-8.41-27.18-8.54-4.64-.05-8.7.59-12.01,1.41,0,0,7.71-16.21.12-28.18Z"/>
  </g>
</svg>